<svg width="10" height="9" viewBox="0 0 127 148" fill="none" xmlns="http://www.w3.org/2000/svg">
<g filter="url(#filter0_d)">
<g clip-path="url(#clip0)">
<rect x="29" y="40" width="86" height="86" rx="20" fill="#6EE7B7"/>
<g clip-path="url(#clip1)">
<rect width="83" height="48" transform="translate(112 148) rotate(-180)" fill="black" fill-opacity="0.04"/>
<rect width="174.176" height="78.1738" transform="translate(184 114.406) rotate(145.124)" fill="#6EE7B7"/>
</g>
</g>
</g>
<g clip-path="url(#clip2)">
<rect x="3" y="14" width="86" height="86" rx="20" fill="#A7F3D0"/>
<rect width="20" height="60" transform="matrix(0.0148436 -0.99989 0.999936 0.0113062 29 77.9978)" fill="white"/>
<rect width="20" height="60" transform="translate(49 40)" fill="white"/>
<path d="M69 78H92V85C92 94.9411 83.9411 103 74 103H69V78Z" fill="#6EE7B7"/>
<rect width="28" height="19" transform="translate(69 40)" fill="#6EE7B7"/>
<g clip-path="url(#clip3)">
<rect width="83" height="49" transform="translate(6 -9)" fill="black" fill-opacity="0.04"/>
<rect width="174.176" height="78.1738" transform="translate(-66 24.5942) rotate(-34.876)" fill="#A7F3D0"/>
</g>
</g>
<defs>
<filter id="filter0_d" x="17" y="30" width="110" height="110" filterUnits="userSpaceOnUse" color-interpolation-filters="sRGB">
<feFlood flood-opacity="0" result="BackgroundImageFix"/>
<feColorMatrix in="SourceAlpha" type="matrix" values="0 0 0 0 0 0 0 0 0 0 0 0 0 0 0 0 0 0 127 0" result="hardAlpha"/>
<feOffset dy="2"/>
<feGaussianBlur stdDeviation="6"/>
<feComposite in2="hardAlpha" operator="out"/>
<feColorMatrix type="matrix" values="0 0 0 0 0 0 0 0 0 0 0 0 0 0 0 0 0 0 0.25 0"/>
<feBlend mode="normal" in2="BackgroundImageFix" result="effect1_dropShadow"/>
<feBlend mode="normal" in="SourceGraphic" in2="effect1_dropShadow" result="shape"/>
</filter>
<clipPath id="clip0">
<rect x="29" y="40" width="86" height="86" rx="20" fill="white"/>
</clipPath>
<clipPath id="clip1">
<rect width="83" height="48" fill="white" transform="translate(112 148) rotate(-180)"/>
</clipPath>
<clipPath id="clip2">
<rect x="3" y="14" width="86" height="86" rx="20" fill="white"/>
</clipPath>
<clipPath id="clip3">
<rect width="83" height="49" fill="white" transform="translate(6 -9)"/>
</clipPath>
</defs>
</svg>
